<?xml version="1.0" encoding="utf-8"?>
<!-- Generator: Adobe Illustrator 21.0.0, SVG Export Plug-In . SVG Version: 6.00 Build 0)  -->
<svg version="1.1" id="Layer_1" xmlns="http://www.w3.org/2000/svg" xmlns:xlink="http://www.w3.org/1999/xlink" x="0px" y="0px"
	 viewBox="0 0 100 100" style="enable-background:new 0 0 100 100;" xml:space="preserve">
<g>
	<path d="M66.7,0.5c0.5,0.8,0.1,2.2-1.3,4.3c-7.1,10.9-12.5,22.6-16.2,35.1c-1.6,5.2-3,10.5-4.2,15.8c-1.2,5.3-2.4,10.6-3.4,15.9
		c-1.2,5.9-2.4,11.7-3.6,17.6c-0.5,2.4-1.2,4.7-2,7c-0.2,0.6-0.5,1.2-0.8,1.8c-0.1,0.2-0.1,0.3-0.2,0.4c-0.3,0.5-0.6,0.9-1.1,1.2
		c-0.5,0.3-1,0.4-1.6,0.4H32c-1.2,0-2.1-0.5-2.8-1.3c-0.8-1.1-1.4-2.2-1.9-3.4c-1-2.5-1.7-5.1-2.2-7.8c-0.9-4.4-1.5-8.7-1.9-13.2
		c-0.7-6.8-1.2-13.7-1.5-20.6c0-0.2,0-0.3-0.1-0.6c0-0.1-0.1-0.3-0.1-0.4c-0.2,0.3-0.4,0.6-0.5,0.9c-0.1,0.3-0.2,0.6-0.2,0.9
		c0,0.1-0.1,0.2-0.1,0.3c-0.7,2.9-1.3,5.7-2,8.6c-0.7,2.9-1.5,5.7-2.4,8.5c-0.7,2.2-1.5,4.2-2.5,6.3c-0.5,1-1.1,1.9-1.9,2.8
		c-0.6,0.7-1.3,1.1-2.2,1.4c-0.9,0.2-1.8,0.1-2.6-0.2c-0.9-0.4-1.6-1.1-2-2.2c-0.6-1.4-1.1-2.9-1.4-4.4C2.9,72.7,2.4,69.9,2,67
		c-0.9-6.6-1.6-13.3-1.9-20.1c-0.2-4.3-0.1-8.7,0.3-13c0.1-0.6,0.2-1.2,0.3-1.8c0.2-0.6,0.7-0.9,1.4-0.9c0.8,0,1.1,0.4,1.1,1.1
		c0,1.8-0.1,3.5-0.2,5.2c-0.1,2.8-0.1,5.5,0,8.2c0.1,2.7,0.3,5.5,0.5,8.2c0.3,3.3,0.6,6.5,1.1,9.8c0.2,2.1,0.5,4.2,0.9,6.4
		c0.3,2.1,0.8,4.2,1.3,6.3c0.3,1.1,0.7,2.1,1.1,3c0.3,0.6,0.5,0.9,0.8,0.9c0.2,0,0.6-0.3,1-0.8c0.3-0.5,0.7-1,0.9-1.5
		c0.6-1,1-2,1.4-3c0.4-1,0.8-2,1.1-3.1c0.9-2.8,1.7-5.7,2.5-8.5c0.7-2.9,1.4-5.8,2.1-8.7c0.1-0.5,0.2-0.9,0.3-1.4
		c0.5-2,1-4.1,1.6-6.1c0.1-0.4,0.2-0.9,0.4-1.3c0.2-0.7,0.4-1.3,0.7-1.9c0.3-0.6,0.9-1,1.6-1c0.6-0.1,1.1,0,1.4,0.3
		c0.3,0.2,0.5,0.7,0.6,1.3c0.1,1.1,0.2,2.1,0.2,3.2c0.1,5.4,0.4,10.8,0.8,16.2c0.1,0.5,0.1,1.1,0.1,1.6c0.2,2.7,0.4,5.5,0.7,8.2
		c0.3,2.7,0.6,5.5,1,8.2c0.3,1.9,0.6,3.9,1.1,5.8c0.4,1.9,0.9,3.8,1.6,5.7c0,0,0,0.1,0,0.1c0.2,0.7,0.5,1.3,0.7,2
		c0.3,0.6,0.7,1.2,1.1,1.8c0.3-0.1,0.4-0.2,0.6-0.3c0.1-0.2,0.2-0.3,0.2-0.5c0-0.1,0.1-0.1,0.1-0.2c0.9-2.3,1.6-4.7,2.1-7.2
		c0.8-3.8,1.6-7.6,2.3-11.4c0.8-3.9,1.6-7.8,2.4-11.7c1.1-5.5,2.4-11,3.8-16.5c1.4-5.5,3-10.8,4.8-16.2C51.9,21.9,57.4,11,64.4,1
		C65.4-0.1,66.2-0.3,66.7,0.5z"/>
	<path d="M59.5,66.1c-0.4,0.8-1,1.6-1.9,2.5c-0.9,0.9-1.9,1.5-3,1.8c-1.1,0.2-2.2-0.1-3.2-1.2c-0.4-0.4-0.7-1-0.9-1.6
		c-0.2-0.6-0.3-1.2-0.2-1.8c0-0.2,0-0.4,0-0.6c0-0.6,0-1.3,0.1-2.1c0.1-0.8,0.2-1.5,0.4-2.2c0.2-0.6,0.5-1,0.9-1.2
		c1.1-0.3,1.7,0.1,1.9,1.2c0,0.3,0,0.7,0,1c0,0.2,0,0.4,0,0.5c0,0.5-0.1,1-0.1,1.5c0,0.4,0,0.8,0,1.2c0,1.7,0.4,2.8,1.2,3.1
		c0.8,0.3,1.7,0,2.7-1c1-1,1.7-1.9,2-2.6c0.3-0.7,0.5-0.8,0.7-0.4C59.9,64.8,59.8,65.3,59.5,66.1z M53.2,56.2
		c-0.2,0.1-0.3,0.2-0.6,0.3c-0.2,0-0.4,0-0.6-0.1c-0.1-0.1-0.2-0.2-0.3-0.4c0-0.2-0.1-0.4-0.1-0.6c0-0.1,0-0.1,0-0.2
		c0-0.2,0.1-0.4,0.2-0.6c0.2-0.6,0.7-0.8,1.5-0.8c0.3,0,0.5,0.1,0.6,0.3c0.1,0.2,0.2,0.4,0.1,0.6C53.9,55.3,53.6,55.8,53.2,56.2z"/>
	<path d="M70.4,64.8c0.2-0.5,0.4-0.7,0.5-0.6c0.1,0,0.1,0.2,0.1,0.6c0,0.3-0.1,0.7-0.2,1.1c-0.2,0.7-0.4,1.4-0.8,2.3
		c-0.4,0.9-0.8,1.7-1.3,2.4c-0.7,1-1.5,1.7-2.6,2.2c-1,0.5-2,0.6-2.8,0.4c-0.8-0.2-1.3-1-1.4-2.3c0-1.1,0.1-2.3,0.3-3.6
		c0.1-0.6,0.2-1.1,0.2-1.6c0-0.2,0-0.3-0.1-0.4C62.1,65,62,64.9,61.8,65c-0.1,0-0.2,0-0.4,0c-0.7,0.1-1.3,0.1-2,0
		c-0.8-0.2-1.3-0.6-1.4-1.2c-0.1-0.6-0.1-1.3,0-2.2c0.1-0.7,0.3-1.1,0.7-1.5c0.4-0.3,0.9-0.5,1.4-0.4c0.8,0.1,1.1,0.4,1.1,0.9
		c0,0.5-0.2,1.1-0.4,1.6c-0.2,0.5-0.4,0.9-0.4,1.2c0,0.3,0.3,0.4,0.8,0.3c0.1,0,0.3-0.1,0.4-0.1c0.2-0.1,0.5-0.2,0.7-0.2
		c0.3-0.1,0.6-0.1,1.1-0.1c0.5,0,0.9,0.3,1,0.7c0.2,0.5,0.2,1,0.2,1.7c0,0.7-0.1,1.4-0.2,2.1c-0.1,0.9-0.2,1.7-0.2,2.3
		c0,0.6,0.2,1,0.6,1.1c0.5,0.1,1.2-0.3,2.2-1.3C68.2,68.9,69.3,67.2,70.4,64.8z"/>
	<path d="M73.3,69.1c1,0,1.3,0.5,1,1.4c-0.1,0.4-0.3,0.7-0.4,1c-0.2,0.3-0.4,0.5-0.7,0.6s-0.6,0.1-0.9-0.1c-0.3-0.1-0.4-0.3-0.4-0.6
		c0-0.4,0-0.9,0-1.3C72,69.5,72.5,69.1,73.3,69.1z"/>
	<path d="M80.2,69.1c1,0,1.3,0.5,1,1.4c-0.1,0.4-0.3,0.7-0.4,1c-0.2,0.3-0.4,0.5-0.7,0.6s-0.6,0.1-0.9-0.1c-0.3-0.1-0.4-0.3-0.4-0.6
		c0-0.4,0-0.9,0-1.3C78.9,69.5,79.3,69.1,80.2,69.1z"/>
	<path d="M87,69.1c1,0,1.3,0.5,1,1.4c-0.1,0.4-0.3,0.7-0.4,1c-0.2,0.3-0.4,0.5-0.7,0.6c-0.3,0.1-0.6,0.1-0.9-0.1
		c-0.3-0.1-0.4-0.3-0.4-0.6c0-0.4,0-0.9,0-1.3C85.7,69.5,86.2,69.1,87,69.1z"/>
</g>
</svg>
