<?xml version="1.0" encoding="utf-8"?>
<!-- Generator: Adobe Illustrator 21.0.0, SVG Export Plug-In . SVG Version: 6.00 Build 0)  -->
<svg version="1.1" id="Layer_1" xmlns="http://www.w3.org/2000/svg" xmlns:xlink="http://www.w3.org/1999/xlink" x="0px" y="0px"
	 viewBox="0 0 67 37" style="enable-background:new 0 0 67 37;" xml:space="preserve">
<style type="text/css">
	.st0{fill:url(#SVGID_1_);}
</style>
<linearGradient id="SVGID_1_" gradientUnits="userSpaceOnUse" x1="0" y1="18.5" x2="67" y2="18.5">
	<stop  offset="0" style="stop-color:#ED1E79"/>
	<stop  offset="1" style="stop-color:#F61451"/>
</linearGradient>
<path class="st0" d="M67,2.1l-1.9-2l-18.8,18c-0.8-0.6-1.8-1-3-1c-2,0-3.7,1.2-4.5,2.9l-11.8-4.3c-0.2-2.6-2.3-4.6-4.9-4.6
	c-2.7,0-5,2.2-5,5c0,0.8,0.2,1.5,0.5,2.2L0,34.9l1.9,2l17.7-16.7c0.8,0.5,1.6,0.7,2.6,0.7c1.9,0,3.5-1.1,4.4-2.6l11.9,4.4
	c0.3,2.4,2.4,4.3,4.9,4.3c2.7,0,5-2.2,5-5c0-0.6-0.1-1.2-0.3-1.8L67,2.1z M22.2,18.3c-1.2,0-2.2-1-2.2-2.2s1-2.2,2.2-2.2
	s2.2,1,2.2,2.2S23.4,18.3,22.2,18.3z M43.4,24.3c-1.2,0-2.2-1-2.2-2.2c0-1.2,1-2.2,2.2-2.2s2.2,1,2.2,2.2
	C45.6,23.3,44.6,24.3,43.4,24.3z"/>
</svg>
