<?xml version="1.0" encoding="utf-8"?>
<!-- Generator: Adobe Illustrator 21.0.0, SVG Export Plug-In . SVG Version: 6.00 Build 0)  -->
<svg version="1.1" id="Layer_1" xmlns="http://www.w3.org/2000/svg" xmlns:xlink="http://www.w3.org/1999/xlink" x="0px" y="0px"
	 viewBox="0 0 31 23" style="enable-background:new 0 0 31 23;" xml:space="preserve">
<style type="text/css">
	.st0{fill:#FFFFFF;}
	.st1{fill:#9E005D;}
</style>
<g>
	<polyline class="st0" points="28.8,2.4 10.6,20.6 2.1,14.5 	"/>
	<path class="st1" d="M27.3,0.8C21.2,6.9,15.1,13,9,19.1c0.9-0.1,1.8-0.2,2.6-0.3c-2.8-2.1-5.7-4.1-8.5-6.2
		c-2.3-1.6-4.5,2.1-2.2,3.8c2.8,2.1,5.7,4.1,8.5,6.2c0.8,0.6,2,0.3,2.6-0.3C18.2,16.1,24.3,10,30.4,3.9C32.3,1.9,29.3-1.2,27.3,0.8
		L27.3,0.8z"/>
</g>
</svg>
