<?xml version="1.0" encoding="utf-8"?>
<!-- Generator: Adobe Illustrator 21.0.0, SVG Export Plug-In . SVG Version: 6.00 Build 0)  -->
<svg version="1.1" id="Layer_1" xmlns="http://www.w3.org/2000/svg" xmlns:xlink="http://www.w3.org/1999/xlink" x="0px" y="0px"
	 viewBox="0 0 145 70" style="enable-background:new 0 0 145 70;" xml:space="preserve">
<g>
	<path d="M22.5,37.8c0.4-0.2,0.7-0.3,1.1-0.4c0.4-0.1,0.7-0.1,0.9-0.1c0.2,0,0.3,0.1,0.2,0.3c-0.1,0.1-0.4,0.4-1,0.6
		c-0.9,0.4-2,1-3,1.8c-1.1,0.8-2,1.7-2.8,2.6c-0.8,1-1.4,2-1.6,3.1c-0.9,4.7-2.1,9.3-3.7,13.9c-0.7,2.1-1.7,4.2-2.8,6.2
		c-0.5,0.9-1.1,1.7-1.8,2.4c-0.4,0.4-0.9,0.7-1.5,0.8c-0.9,0.1-1.7,0-2.2-0.3c-0.5-0.3-0.8-0.9-1.1-1.9c-0.2-1.2-0.2-2.4,0.1-3.6
		C4,60.6,4.9,58,6.1,55.6c0.9-1.9,2-3.8,3.2-5.6c1.2-1.8,2.5-3.5,3.9-5.1c0.4-0.4,0.6-0.8,0.8-1.3c0.1-0.5,0.2-0.9,0.3-1.4
		c0-0.6,0.1-1.2,0.2-1.8c0.3-2.5,0.5-5.1,0.7-7.7c0.3-5.4,0.2-10.9-0.3-16.3c-0.3-2.9-0.9-5.7-1.8-8.5c-0.4-1.3-1-2.5-1.8-3.6
		c-0.2-0.3-0.5-0.6-0.7-0.8c-0.6-0.7-1.2-1-1.8-1.1C8.1,2.4,7.5,2.7,6.8,3.2c-2.4,1.8-3.8,4.1-4.3,7c-0.2,1.1-0.7,1.4-1.7,1.1
		C0.3,11.2,0,10.9,0,10.4C0,10,0,9.6,0.1,9.1c0.7-2.5,2-4.7,3.9-6.4c0.9-0.8,1.8-1.3,2.8-1.6c1-0.2,2.1-0.3,3.3-0.1
		c0.7,0.1,1.2,0.4,1.8,0.7c0.5,0.4,1,0.8,1.4,1.3c1.1,1.3,1.9,2.7,2.4,4.2c0.6,1.6,1,3.2,1.3,4.8c0.3,1.6,0.5,3.3,0.7,4.9
		c0.2,2.4,0.3,4.6,0.4,6.7c0,0.8,0.1,1.6,0.1,2.3c-0.1,4.6-0.3,8.8-0.8,12.6c0,0.5-0.1,1-0.1,1.5c0,0.1,0,0.2,0,0.3
		c0,0.1,0.1,0.2,0.2,0.2c0.1,0,0.1,0,0.2,0c0.1,0,0.1,0,0.2-0.1c1-0.7,2-1.3,2.9-1.7C21.4,38.5,21.9,38.2,22.5,37.8z M12.6,50.7
		c0-0.2,0.1-0.4,0.1-0.7c0-0.1,0-0.2,0-0.3c-1.4,1.8-2.6,3.6-3.7,5.6c-1,1.9-1.9,4-2.5,6.2c-0.2,0.8-0.4,1.6-0.5,2.4
		c-0.1,0.8-0.2,1.6-0.1,2.4c0,0.1,0,0.2,0.1,0.3c0,0.1,0.1,0.2,0.3,0.2c0.2,0,0.4,0,0.5-0.2c0.8-1.1,1.5-2.4,2-3.7
		c0.9-1.9,1.6-3.9,2.2-5.9C11.6,54.8,12.1,52.7,12.6,50.7z"/>
	<path d="M45.2,42L45.2,42c0.1-0.1,0.3-0.4,0.7-0.7c0.4-0.3,0.8-0.7,1.2-1c0.4-0.3,0.7-0.5,0.9-0.5c0.2,0,0.1,0.3-0.1,0.8
		c0,0.1-0.1,0.2-0.2,0.3c-0.1,0.1-0.2,0.2-0.2,0.3c0,0,0,0-0.1,0.1c-1.7,1.8-3,3.1-4,3.8c-1,0.7-1.9,1-2.9,1c-1-0.1-1.6-0.5-2-1.1
		c-0.3-0.7-0.5-1.5-0.5-2.4c0-0.9,0.1-1.9,0.2-2.9c0.1-1,0.2-1.9,0.2-2.6c0-0.7-0.3-1.1-0.7-1.3c-0.4,0-0.9,0.3-1.3,1.1
		c-0.5,0.7-0.9,1.6-1.3,2.6c-0.4,1-0.8,1.9-1,2.6c-0.1,0.4-0.3,0.7-0.3,0.9c-0.2,0.4-0.5,0.6-0.8,0.8s-0.8,0.1-1.2-0.1
		c-0.2-0.1-0.4-0.4-0.4-0.6c-0.1-0.6-0.1-1.2-0.1-1.8c0-0.4,0-0.8,0-1.2c0-0.1,0-0.2,0-0.4c0-0.2,0-0.4,0-0.6c0-0.2,0-0.4-0.1-0.5
		c0-0.1-0.1-0.2-0.2-0.2c-0.2,0-0.4,0.2-0.7,0.7c-0.3,0.5-0.5,1-0.8,1.7c-0.3,0.7-0.5,1.3-0.7,1.8c-0.2,0.5-0.3,0.8-0.4,0.9
		c0,0.1-0.1,0.1-0.1,0.2c-0.2,0.4-0.4,0.9-0.7,1.3c-0.2,0.4-0.5,0.6-0.9,0.7c-0.9,0.1-1.4-0.2-1.5-1.1c-0.1-2.3-0.1-4.5-0.2-6.8
		c0-0.6,0.4-0.8,1.1-0.6c0.7,0.2,1.1,0.5,1.2,1.1c0.1,0.9,0.2,1.4,0.3,1.4c0.1,0,0.5-0.4,0.9-1.3c0.2-0.4,0.5-0.8,0.8-1.2
		c0.3-0.6,0.7-1,1.3-1.5c0.6-0.4,1.1-0.5,1.6-0.3c0.5,0.1,0.9,0.5,1.2,1.2c0.1,0.3,0.2,0.4,0.4,0.4c0.1,0,0.2,0,0.4-0.2
		c0.1-0.1,0.2-0.3,0.4-0.5c0.1-0.2,0.2-0.4,0.3-0.5c0.7-0.8,1.5-1.3,2.4-1.6c0.9-0.3,1.8-0.3,2.6,0c0.8,0.3,1.2,1,1.3,2.1
		c0,1.3,0,2.6-0.3,3.9c-0.1,0.6-0.2,1.2-0.2,1.8c0,1.2,0.2,1.9,0.7,2c0.5,0.1,1.1-0.1,1.8-0.6C43.8,43.2,44.5,42.6,45.2,42z"/>
	<path d="M59.3,40c0.5-0.1,1.2-0.5,2-1.1c0.8-0.6,1.2-0.6,1.1,0c-0.1,0.6-0.5,1-1.3,1.4c-0.8,0.4-1.5,0.7-2.2,0.8
		c-0.2,0-0.3,0.1-0.5,0.3c-0.2,0.1-0.3,0.3-0.3,0.5c-0.1,0.7-0.4,1.4-0.7,2c-0.9,1.5-2.3,2.1-4.1,1.8c-0.7-0.2-1.1-0.5-1.3-1
		c-0.2-0.5-0.1-1.1,0.3-1.7c0.5-0.7,1.2-1.2,2-1.6c0.3-0.1,0.6-0.3,0.8-0.3c0.1,0,0.3-0.1,0.4-0.1c0.3-0.2,0.5-0.5,0.5-1
		c0-0.5-0.1-1-0.3-1.5c-0.3-0.5-0.6-0.8-1.1-1c-0.5-0.2-1,0-1.6,0.5c-0.6,0.6-1.1,1.2-1.4,2c-0.7,1.5-1.2,3.1-1.5,4.7
		c-0.5,2.9-0.8,5.8-1,8.8c-0.1,1.4-0.2,2.7-0.4,4.1c-0.1,0.6-0.1,1.1-0.2,1.7c0,0.2-0.1,0.4-0.1,0.6c-0.1,0.4-0.4,0.5-0.8,0.5
		c-0.5,0-0.7-0.2-0.7-0.6c0-0.4,0-0.8,0-1.2c0-0.1,0-0.2,0-0.3c0-0.5,0-1,0.1-1.5c0-0.9,0-1.8,0.1-2.7c0-3.7,0-7.4-0.1-11.2
		c0-1.4,0-2.8-0.1-4.2c0-0.1,0-0.3,0-0.4c0-0.5,0-1,0.1-1.4c0.1-0.5,0.4-0.7,0.9-0.8c0.5,0,0.9,0.2,1,0.7c0,0,0,0.1,0,0.1
		c0.2,1,0.3,2.4,0.5,4.1c0.4-1.1,0.9-2.1,1.5-2.8c0.6-0.7,1.3-1.2,2.1-1.6c0.7-0.3,1.3-0.4,2-0.3c0.7,0.1,1.3,0.3,1.9,0.9
		c0.6,0.5,1,1.3,1.2,2.3c0.1,0.4,0.2,0.7,0.4,0.8C58.4,40.1,58.8,40.1,59.3,40z M54.3,44.5c0.4-0.2,0.8-0.6,1-1
		c0.2-0.4,0.4-0.8,0.4-1.1c0-0.3-0.1-0.4-0.4-0.3c-0.7,0.3-1.2,0.6-1.4,1c-0.3,0.4-0.3,0.8-0.3,1.1C53.8,44.6,54,44.6,54.3,44.5z"/>
	<path d="M71.9,40.2c0.2-0.4,0.4-0.6,0.4-0.6c0.1,0,0.1,0.2,0.1,0.5c0,0.3-0.1,0.7-0.2,1.1c-0.1,0.6-0.4,1.3-0.7,2.1
		c-0.4,0.8-0.7,1.5-1.2,2.2c-0.6,0.9-1.4,1.6-2.4,2c-0.9,0.5-1.8,0.6-2.6,0.3c-0.8-0.2-1.2-1-1.3-2.2c0-1,0.1-2.1,0.3-3.4
		c0.1-0.5,0.1-1,0.2-1.5c0-0.2,0-0.3-0.1-0.4c-0.1-0.1-0.2-0.1-0.3-0.1c-0.1,0-0.2,0-0.3,0c-0.6,0.1-1.2,0.1-1.9,0
		c-0.8-0.2-1.2-0.6-1.3-1.1c-0.1-0.5-0.1-1.2,0-2.1c0.1-0.6,0.3-1.1,0.7-1.4c0.4-0.3,0.8-0.4,1.3-0.4c0.7,0.1,1,0.3,1,0.8
		c0,0.5-0.2,1-0.4,1.5c-0.2,0.5-0.3,0.8-0.3,1.2c0,0.3,0.2,0.4,0.8,0.3c0.1,0,0.3-0.1,0.4-0.1c0.2-0.1,0.4-0.1,0.7-0.2
		c0.3-0.1,0.6-0.1,1-0.1c0.5,0,0.8,0.2,1,0.7c0.2,0.4,0.2,1,0.2,1.6c0,0.6-0.1,1.3-0.2,2c-0.1,0.8-0.2,1.5-0.2,2.1
		c0,0.6,0.2,0.9,0.5,1c0.5,0.1,1.1-0.3,2-1.2C70,44,70.9,42.4,71.9,40.2z"/>
	<path d="M88,35.6c0.4-0.3,0.9-0.5,1.6-0.6c0.5,0,0.9,0,1.4,0.1c0.4,0.1,0.8,0.3,1.2,0.6c0.1,0.1,0.1,0.2,0.2,0.3
		c0,0.1,0,0.2-0.1,0.4c-0.1,0.2-0.3,0.3-0.5,0.3c-0.2,0-0.3,0-0.5-0.1c-0.2-0.1-0.3-0.1-0.5-0.2l-0.3-0.1c-0.3-0.1-0.6-0.1-0.7,0.1
		c-0.2,0.2-0.3,0.4-0.3,0.7c0,0.6,0.3,1.2,0.7,1.8s0.9,1.2,1.3,1.8c0.2,0.2,0.3,0.4,0.4,0.5c0.1,0.1,0.4,0.1,1-0.1
		c0.5-0.2,1.5-0.6,2.9-1.3c1.4-0.7,2.1-1,2.1-0.7c0,0.3-0.5,0.7-1.6,1.4c-1.1,0.6-1.9,1.1-2.4,1.5c-0.5,0.3-0.8,0.5-0.8,0.6
		c0.1,0.2,0.2,0.6,0.3,1.1s0.2,1.1,0.1,1.7c0,0.6-0.2,1.2-0.6,1.6c-0.4,0.5-1,0.8-1.8,0.9c-0.9,0.1-1.6-0.1-2.3-0.4
		c-0.7-0.3-1.1-0.8-1.3-1.4c-0.2-0.6,0-1.3,0.6-2.2c0.4-0.5,0.9-0.9,1.4-1.2c0.2-0.1,0.4-0.3,0.6-0.4c-0.7-0.7-1.3-1.4-1.9-2.2
		l-0.4-0.6c-0.9,1.1-1.6,2-2.3,2.8c-1.2,1.3-2.4,2.3-3.7,2.8c-0.9,0.4-2,0.8-3,1c-1.1,0.3-2.1,0.3-3.1,0.2c-1-0.1-2-0.6-2.8-1.4
		c-1.3-1.2-1.8-2.7-1.6-4.4c0.2-1.4,0.7-2.5,1.6-3.5c0.9-1,2-1.6,3.3-2c1.1-0.2,2.2-0.3,3.4-0.1c0.5,0.1,1,0.2,1.4,0.5
		c0.4,0.3,0.6,0.6,0.6,1c0,0.4-0.1,0.8-0.5,1.2c-0.7,0.6-1.5,1-2.4,1.1c-1,0.2-2.1,0.3-3.2,0.3c-0.5,0-0.8,0.1-1,0.3
		c-0.2,0.2-0.3,0.6-0.4,1.1c-0.1,1.4,0.3,2.5,1.4,3.4c0.6,0.5,1.4,0.7,2.4,0.7c0.9-0.1,1.9-0.3,3-0.7c1.1-0.4,2.3-1.3,3.7-2.7
		c1.1-1.1,2-2.5,2.7-4.3C87.3,36.3,87.6,35.9,88,35.6z M76,37.2C76,37.2,76,37.2,76,37.2c-0.1,0.1-0.1,0.1-0.2,0.2
		c-0.1,0.1-0.1,0.1-0.2,0.2c-0.1,0.1-0.1,0.1-0.1,0.1c0,0.1,0.2,0.1,0.6,0.1c0.4,0,0.8-0.1,1.2-0.2c0.4-0.1,0.8-0.2,1.1-0.4
		c0.3-0.2,0.4-0.3,0.3-0.6c0-0.1-0.1-0.1-0.2-0.2c-0.1,0-0.2-0.1-0.3-0.1c-0.4,0-0.8,0.1-1.2,0.3C76.7,36.7,76.3,36.9,76,37.2z
		 M90.4,46.5c0.3,0,0.5-0.2,0.6-0.5c0.1-0.3,0.1-0.7,0.1-1.1c0-0.4,0-0.7-0.1-0.9c0-0.1-0.1-0.2-0.2-0.2c-0.1,0-0.2,0-0.3,0
		c-0.4,0.3-0.6,0.7-0.8,1.1c-0.2,0.4-0.2,0.8,0,1.2c0.1,0.1,0.2,0.2,0.3,0.3C90.1,46.5,90.2,46.5,90.4,46.5z"/>
	<path d="M106.7,39.1c0,0.3-0.5,0.7-1.6,1.4c-1.1,0.6-1.9,1.1-2.4,1.5c-0.5,0.3-0.8,0.5-0.8,0.6c0.1,0.2,0.2,0.6,0.3,1.1
		c0.1,0.5,0.2,1.1,0.1,1.7c0,0.6-0.2,1.2-0.6,1.6c-0.4,0.5-1,0.8-1.8,0.9c-0.9,0.1-1.6-0.1-2.3-0.4c-0.7-0.3-1.1-0.8-1.3-1.4
		c-0.2-0.6,0-1.3,0.6-2.2c0.4-0.5,0.9-0.9,1.4-1.2c0.2-0.1,0.4-0.3,0.6-0.4c-0.7-0.7-1.3-1.4-1.9-2.2c-0.6-0.7-1-1.4-1.1-2
		c-0.2-0.7-0.1-1.3,0.3-1.9c0.4-0.6,1.1-0.9,2.1-1c0.5,0,0.9,0,1.4,0.1c0.4,0.1,0.8,0.3,1.2,0.6c0.1,0.1,0.1,0.2,0.2,0.3
		c0,0.1,0,0.2-0.1,0.4c-0.1,0.2-0.3,0.3-0.5,0.3c-0.2,0-0.3,0-0.5-0.1c-0.2-0.1-0.3-0.1-0.5-0.2c-0.1,0-0.2-0.1-0.3-0.1
		c-0.3-0.1-0.6-0.1-0.7,0.1c-0.2,0.2-0.3,0.4-0.3,0.7c0,0.6,0.3,1.2,0.7,1.8s0.9,1.2,1.3,1.8c0.2,0.2,0.3,0.4,0.4,0.5
		c0.1,0.1,0.4,0.1,1-0.1c0.5-0.2,1.5-0.6,2.9-1.3C106,39.1,106.7,38.8,106.7,39.1z M99.3,46.5c0.3,0,0.5-0.2,0.6-0.5
		c0.1-0.3,0.1-0.7,0.1-1.1c0-0.4,0-0.7-0.1-0.9c0-0.1-0.1-0.2-0.2-0.2c-0.1,0-0.2,0-0.3,0c-0.4,0.3-0.6,0.7-0.8,1.1
		c-0.2,0.4-0.2,0.8,0,1.2c0.1,0.1,0.2,0.2,0.3,0.3C99,46.5,99.2,46.5,99.3,46.5z"/>
	<path d="M122.7,39.8c0.2,0,0.2,0.4-0.1,1c-0.3,0.6-0.9,1.4-1.6,2.2c-0.7,0.8-1.6,1.6-2.5,2.2c-0.9,0.6-1.9,0.9-2.8,0.8
		c-0.7-0.1-1.2-0.3-1.5-0.6c-0.3-0.3-0.6-0.7-0.7-1.1s-0.2-0.8-0.2-1.1c0-0.2-0.1-0.4-0.1-0.5c0-0.1-0.1-0.1-0.2,0
		c-0.7,1.6-1.9,2.4-3.7,2.4c-1,0-1.8-0.4-2.4-1.3c-0.6-0.9-1-1.9-1.2-3.2c-0.2-1.3,0-2.6,0.4-4c0.1-0.4,0.4-0.7,0.8-0.9
		c0.3-0.1,0.6-0.1,1,0c0.3,0.1,0.5,0.4,0.5,0.7c0,0.3,0,0.6-0.1,0.9c0,0.2-0.1,0.4-0.1,0.6c0,0.8,0,1.7,0,2.6
		c0.1,0.9,0.3,1.8,0.8,2.4c0.4,0.5,0.9,0.6,1.4,0.2c0.5-0.4,1-1,1.4-1.9c0.3-0.7,0.5-1.4,0.7-2c0.2-0.7,0.3-1.2,0.3-1.6
		c0-0.1,0.1-0.2,0.1-0.3c0.1-0.3,0.1-0.6,0.2-0.8c0.1-0.4,0.2-0.8,0.4-1.2c0.2-0.8,0.8-1.1,1.6-0.9c0.5,0,0.8,0.3,0.8,0.8
		c0,0.6,0.1,1.3,0,1.9c0,0.7-0.1,1.3-0.1,1.9c0,0.9-0.1,1.8-0.1,2.7c0,1.3,0.2,2.1,0.8,2.3c0.5,0.2,1.2,0.1,2-0.4
		c0.8-0.5,1.6-1.2,2.3-2c0.1-0.1,0.2-0.2,0.3-0.3c0.1-0.2,0.3-0.4,0.5-0.6c0.2-0.2,0.4-0.4,0.6-0.6
		C122.5,39.9,122.6,39.8,122.7,39.8z"/>
	<path d="M142.1,42L142.1,42c0.1-0.1,0.3-0.4,0.7-0.7c0.4-0.3,0.8-0.7,1.2-1c0.4-0.3,0.7-0.5,0.9-0.5c0.2,0,0.1,0.3-0.1,0.8
		c0,0.1-0.1,0.2-0.2,0.3c-0.1,0.1-0.2,0.2-0.2,0.3c0,0,0,0-0.1,0.1c-1.7,1.8-3,3.1-4,3.8c-1,0.7-1.9,1-2.9,1c-1-0.1-1.6-0.5-2-1.1
		s-0.5-1.5-0.5-2.4c0-0.9,0.1-1.9,0.2-2.9c0.1-1,0.2-1.9,0.2-2.6c0-0.7-0.3-1.1-0.7-1.3c-0.4,0-0.9,0.3-1.3,1.1
		c-0.5,0.7-0.9,1.6-1.3,2.6c-0.4,1-0.8,1.9-1,2.6c-0.1,0.4-0.3,0.7-0.3,0.9c-0.2,0.4-0.5,0.6-0.8,0.8c-0.4,0.1-0.8,0.1-1.2-0.1
		c-0.2-0.1-0.4-0.4-0.4-0.6c-0.1-0.6-0.1-1.2-0.1-1.8c0-0.4,0-0.8,0-1.2c0-0.1,0-0.2,0-0.4c0-0.2,0-0.4,0-0.6c0-0.2,0-0.4-0.1-0.5
		c0-0.1-0.1-0.2-0.2-0.2c-0.2,0-0.4,0.2-0.7,0.7c-0.3,0.5-0.5,1-0.8,1.7c-0.3,0.7-0.5,1.3-0.7,1.8c-0.2,0.5-0.3,0.8-0.4,0.9
		c0,0.1-0.1,0.1-0.1,0.2c-0.2,0.4-0.4,0.9-0.7,1.3c-0.2,0.4-0.5,0.6-0.9,0.7c-0.9,0.1-1.4-0.2-1.5-1.1c-0.1-2.3-0.1-4.5-0.2-6.8
		c0-0.6,0.4-0.8,1.1-0.6c0.7,0.2,1.1,0.5,1.2,1.1c0.1,0.9,0.2,1.4,0.3,1.4c0.1,0,0.4-0.4,0.9-1.3c0.2-0.4,0.5-0.8,0.8-1.2
		c0.3-0.6,0.7-1,1.3-1.5c0.6-0.4,1.1-0.5,1.6-0.3c0.5,0.1,0.9,0.5,1.2,1.2c0.1,0.3,0.2,0.4,0.4,0.4c0.1,0,0.2,0,0.4-0.2
		c0.1-0.1,0.2-0.3,0.4-0.5c0.1-0.2,0.2-0.4,0.3-0.5c0.7-0.8,1.5-1.3,2.4-1.6c0.9-0.3,1.8-0.3,2.6,0c0.8,0.3,1.2,1,1.3,2.1
		c0,1.3,0,2.6-0.3,3.9c-0.1,0.6-0.2,1.2-0.2,1.8c0,1.2,0.2,1.9,0.7,2s1.1-0.1,1.8-0.6C140.7,43.2,141.4,42.6,142.1,42z"/>
</g>
</svg>
