<?xml version="1.0" encoding="utf-8"?>
<!-- Generator: Adobe Illustrator 21.0.0, SVG Export Plug-In . SVG Version: 6.00 Build 0)  -->
<svg version="1.1" id="Layer_1" xmlns="http://www.w3.org/2000/svg" xmlns:xlink="http://www.w3.org/1999/xlink" x="0px" y="0px"
	 viewBox="0 0 35 35" style="enable-background:new 0 0 35 35;" xml:space="preserve">
<g>
	<path d="M19.3,21.1c2.2-1.6,2.8-4.9,0.7-6.9c-2-1.9-5.3-1.3-6.8,1c-0.1,0.1,0.1,0.2,0.2,0.1c0.1-0.1,0.1-0.1,0.2-0.2
		c-1,1.4-1.1,3.3-0.2,4.9C14.7,22,17.5,22.5,19.3,21.1z"/>
	<path d="M22.2,12.5C22.2,12.6,22.2,12.6,22.2,12.5c1.1,0.2,2.6,0.4,3.6,0c0.1,0,0.2,0,0.2-0.1c0-1.3,0-2.6,0-3.9c0,0,0,0,0,0
		c0.1,0,0.1-0.1,0-0.1c-0.5-0.2-1.2-0.1-1.7,0c-0.6,0-1.3,0.1-1.9,0.1c0-0.1-0.2-0.1-0.2,0c0,0,0,0,0,0c0,0,0,0.1,0,0.1
		c0,1.3,0,2.5-0.1,3.8C22.1,12.5,22.2,12.5,22.2,12.5z"/>
	<path d="M26.8,15.2C26.8,15.2,26.8,15.2,26.8,15.2c-0.6-0.2-1.3-0.1-1.9-0.1c-0.5,0-1.1,0-1.6,0.1c0-0.1-0.2-0.1-0.2,0.1
		c0,0,0,0-0.1,0c0,0,0,0.1,0,0.1c0,0,0.1,0,0.1,0c0.1,0.7,0.4,1.3,0.5,2c0.1,0.6,0.1,1.2-0.1,1.8c0,0-0.1,0-0.1,0
		c-0.2,0.5-0.4,1-0.7,1.4c-1,1.6-2.8,3-4.7,3.4c-2.5,0.6-5.1-0.3-6.5-2.5c-1.1-1.6-0.9-3.2-0.9-4.9c0-0.1,0-0.3,0-0.4
		c0,0.2,0-0.1,0-0.1c0,0,0-0.1,0-0.1c0-0.1,0-0.3,0-0.4c0,0,0,0,0,0c0-0.1,0-0.1,0-0.2c0-0.1,0-0.1,0-0.2c-0.5-0.2-1.1-0.2-1.6-0.1
		C8.7,15,8,15,7.4,15.2c0,0-0.1,0-0.1,0c0,0,0,0,0,0c0,0,0,0-0.1,0c0,0,0,0.1,0,0.1c0,0,0,0,0.1,0c0.1,2.1-0.2,4.3-0.2,6.4
		c0,1.4,0,3.2,0.7,4.4c0.1,0.2,0.3,0.4,0.5,0.6c0,0,0.1,0,0.1-0.1c0.2,0.4,0.7,0.6,1.2,0.6c1.5,0.2,3.2,0.1,4.8,0.1
		c2,0.1,3.9-0.2,5.9-0.1c0.1,0,0.2,0,0.2,0c0,0,0-0.1,0-0.1c0.8,0.2,1.7,0.2,2.6,0.1c0.7,0,1.8,0.1,2.4-0.3c0,0,0,0,0-0.1
		c0.1-0.1,0.2-0.2,0.3-0.3c0.8-1,0.6-2.6,0.7-3.8c0.1-2.6,0.5-5.1,0.3-7.7C26.9,15.1,26.8,15.1,26.8,15.2z"/>
	<path d="M33.7,8.2c-0.1-0.7-0.1-1.4-0.3-2.1c-0.1-0.4-0.1-0.8-0.2-1.1c-0.5-2.1-1.5-3.9-4.1-4.6c-1.7-0.5-3.6-0.4-5.4-0.2
		c-2.6,0.2-5.2,0.3-7.7,0.5S10.9,1,8.3,1.1C6.5,1.2,4.5,1.2,3.1,2.3C2.2,3,1.8,3.9,1.6,4.9C1.3,6.1,1.3,7.4,1.3,8.7
		c0,0.6,0,1.1,0,1.7c-0.1,1.7-0.1,3.3-0.2,5C1,19,0.6,22.8,0.8,26.6c0,0.5,0.1,1,0.2,1.5c0.5,2.8,2.1,5.6,5.2,6.6
		c0.3,0,0.6,0,0.9,0.1c0,0,0,0,0,0c0.3,0,0.6,0,1,0c0,0,0,0,0,0c4.6,0.1,9.2,0.2,13.8,0.3c3.5,0.1,7.6-0.2,9.8-3
		c1-1.3,1.5-2.9,1.7-4.5c0-0.1,0-0.2,0.1-0.3c0-0.1,0-0.1,0-0.2c0-0.1,0-0.3,0.1-0.4c0,0,0-0.1,0-0.1c0.1-0.5,0.1-1,0.2-1.6
		c0.2-1.8,0.3-3.6,0.4-5.5C34.3,15.7,34.2,11.9,33.7,8.2z M29.3,23.7c0.1,3.4-1.5,5.9-5.1,6.6c-1.9,0.4-3.8,0.3-5.7,0.2
		c-2.2-0.1-4.4-0.1-6.7-0.2c0,0,0,0.1-0.1,0.1c-1.7-0.2-3.5,0.1-4.9-1c-0.8-0.6-1.5-1.6-1.6-2.6c0,0-0.1,0.1-0.1,0.1
		c-0.5-1.4-0.6-3.2-0.6-4.6C4.5,18.2,4.4,14,5,10.1c0-1.5,1-2.9,2.2-3.7c1.6-1,4-1,6-0.8c1.5-0.1,3,0.1,4.5,0.1
		c1.6,0,3.3-0.1,4.9-0.1c0.6,0,1.1,0.1,1.6,0.1c0,0,0,0,0,0.1c0.6,0,1.3-0.1,1.9,0c0.7,0.1,1.3,0.4,1.8,0.9c1.3,1.3,1.3,3.6,1.2,5.3
		c-0.1,3,0.1,6.1,0,9.1C29.2,21.9,29.3,22.8,29.3,23.7C29.3,23.7,29.3,23.7,29.3,23.7z"/>
</g>
</svg>
