<?xml version="1.0" encoding="utf-8"?>
<!-- Generator: Adobe Illustrator 21.0.0, SVG Export Plug-In . SVG Version: 6.00 Build 0)  -->
<svg version="1.1" id="Layer_1" xmlns="http://www.w3.org/2000/svg" xmlns:xlink="http://www.w3.org/1999/xlink" x="0px" y="0px"
	 viewBox="0 0 33 26" style="enable-background:new 0 0 33 26;" xml:space="preserve">
<style type="text/css">
	.st0{fill:#62CCCE;}
</style>
<path class="st0" d="M29.7,24.8l-9.3-9.3c1.3-1.6,2.1-3.7,2.1-5.9c0-5.3-4.3-9.6-9.6-9.6C7.6,0,3.3,4.3,3.3,9.6
	c0,5.3,4.3,9.6,9.6,9.6c2.4,0,4.7-0.9,6.4-2.4l9.3,9.3L29.7,24.8z M12.9,17.5C8.5,17.5,5,13.9,5,9.6c0-4.4,3.5-7.9,7.9-7.9
	s7.9,3.5,7.9,7.9C20.8,13.9,17.2,17.5,12.9,17.5z"/>
</svg>
