<?xml version="1.0" encoding="utf-8"?>
<!-- Generator: Adobe Illustrator 21.0.0, SVG Export Plug-In . SVG Version: 6.00 Build 0)  -->
<svg version="1.1" id="Layer_1" xmlns="http://www.w3.org/2000/svg" xmlns:xlink="http://www.w3.org/1999/xlink" x="0px" y="0px"
	 viewBox="0 0 35 35" style="enable-background:new 0 0 35 35;" xml:space="preserve">
<path d="M33.7,8.2c-0.1-0.7-0.1-1.4-0.3-2.1c-0.1-0.4-0.1-0.8-0.2-1.1c-0.5-2.1-1.5-3.9-4.1-4.6c-1.7-0.5-3.6-0.4-5.4-0.2
	c-2.6,0.2-5.2,0.3-7.7,0.5S10.9,1,8.3,1.1C6.5,1.2,4.5,1.2,3.1,2.3C2.2,3,1.8,3.9,1.6,4.9C1.3,6.1,1.3,7.4,1.3,8.7
	c0,0.6,0,1.1,0,1.7c-0.1,1.7-0.1,3.3-0.2,5C1,19,0.6,22.8,0.8,26.6c0,0.5,0.1,1,0.2,1.5c0.5,2.8,2.1,5.6,5.2,6.6
	c0.3,0,0.6,0,0.9,0.1c0,0,0,0,0,0c0.3,0,0.6,0,1,0c0,0,0,0,0,0c4.6,0.1,9.2,0.2,13.8,0.3c3.5,0.1,7.6-0.2,9.8-3
	c1-1.3,1.5-2.9,1.7-4.5c0-0.1,0-0.2,0.1-0.3c0-0.1,0-0.1,0-0.2c0-0.1,0-0.3,0.1-0.4c0,0,0-0.1,0-0.1c0.1-0.5,0.1-1,0.2-1.6
	c0.2-1.8,0.3-3.6,0.4-5.5C34.3,15.7,34.2,11.9,33.7,8.2z M26.2,18.7C26.2,18.7,26.2,18.7,26.2,18.7c-0.1,0.2-0.1,0.3-0.2,0.5
	c-0.2,0.6-0.5,1.2-0.8,1.7c-1,1.9-2.6,3.2-5.1,3.7c-1.2,0.2-4,0-4.4-1.6c-0.4,1.7-2.1,7.5-3.5,6.9c-1-0.4-0.2-3.4,0-4.1
	c0.2-1.1,0.4-2.2,0.6-3.3c0.3-1.4,1.1-2.8,0.9-4.3c0,0,0,0,0,0c-1.4-1.9,0.4-5.9,2.9-5.7c0.9,0.1,1.2,0.8,1.3,1.7
	c0.1,2.2-1.6,4.3-1.1,6.6c1.1,2,4,1,4.9-0.9c0.4-0.8,0.7-1.7,0.9-2.5c0.1-0.4,0.2-0.8,0.3-1.3c0,0,0,0,0,0c0.1-1.3-0.4-2.7-1.1-3.8
	c-0.9-1.4-2.1-2.1-3.7-2.3c0,0,0,0,0,0c-0.6,0-1.2-0.1-1.9,0c-1.6,0.3-3,1.3-4,2.6c-0.9,1.2-1.5,2.8-1.2,4.3c0.1,0.6,0.5,1.9,1,2.3
	c0.1,0,0.1,0.2,0,0.2c0,0.3,0,0.5-0.1,0.8c0,0,0,0,0,0.1c-0.1,0.3-0.2,0.6-0.4,0.9c0,0-0.1,0-0.1,0c0,0.1-0.1,0.1-0.2,0.1
	C7.6,20.1,7.8,15,9,12.5c1.2-2.6,4.3-5,7.3-5.1c2.6-0.5,5.4,0.1,7.4,1.8C26.3,11.6,26.8,15.4,26.2,18.7z"/>
</svg>
