<?xml version="1.0" encoding="utf-8"?>
<!-- Generator: Adobe Illustrator 21.0.0, SVG Export Plug-In . SVG Version: 6.00 Build 0)  -->
<svg version="1.1" id="Layer_1" xmlns="http://www.w3.org/2000/svg" xmlns:xlink="http://www.w3.org/1999/xlink" x="0px" y="0px"
	 viewBox="0 0 160 90" style="enable-background:new 0 0 160 90;" xml:space="preserve">
<style type="text/css">
	.st0{fill:#101116;}
</style>
<g>
	<path class="st0" d="M56.9,9.7c2.3,1.5,4,3.4,5,5.6c1.1,2.3,1.4,4.6,1,7.2c-0.5,3.1-1.6,5.8-3.3,8.2c-1.7,2.4-3.7,4.5-5.9,6.4
		c-1.8,1.6-3.8,3.1-5.8,4.4c-2,1.4-4,2.7-6.1,3.9c-2.7,1.6-5.5,3.2-8.3,4.7c-1.2,0.7-2.4,1.3-3.7,2c0,0-0.1,0.1-0.2,0.1
		c-0.2,0.1-0.3,0.2-0.5,0.2c-0.7,0.2-1.2,0.6-1.4,1c-0.3,0.4-0.4,1-0.4,1.5c0,0.6,0,1.2,0.1,1.8c0,0.3,0.2,0.5,0.5,0.6
		c0.3,0.1,0.7,0.2,1,0.3c1.6,0.3,3.2,0.7,4.7,1c2.6,0.6,5.3,1.1,8,1.7c2.9,0.6,5.9,1.2,8.8,1.8c1.8,0.4,3.6,0.8,5.4,1.2
		c0.5,0.1,1,0.2,1.5,0.3c0.6,0.1,1.1,0.2,1.7,0.4c0.4,0.1,0.8,0.2,1.2,0.4c0.1,0.1,0.2,0.2,0.3,0.3c0.1,0.1,0.1,0.2,0.1,0.4
		c0,0.1-0.1,0.2-0.2,0.3c-0.1,0-0.2,0.1-0.3,0.1c-0.3,0-0.7,0-1-0.1c-1.5-0.3-3-0.5-4.5-0.8c-2.5-0.4-5-0.8-7.6-1.4
		c-4.1-0.9-8.1-1.7-12.2-2.6c-0.9-0.2-1.7-0.3-2.6-0.5c-1.3-0.3-2.6-0.5-4-0.8c-0.6-0.1-0.9,0.1-0.9,0.8c0,0.4,0,0.9,0,1.3
		c0,0.2,0,0.4,0,0.6c-0.1,7-0.1,14-0.2,21c0,0.1,0,0.2,0,0.3c0,0.3,0,0.5,0,0.8c0,0.6-0.4,0.9-1.1,0.8c-0.7-0.1-1.1-0.5-1.2-1.1
		c0-0.3-0.1-0.6,0-0.9c0,0,0-0.1,0-0.1c0-3.7-0.1-7.3-0.1-10.9c0-3.6-0.1-7.3-0.1-11c0-0.2,0-0.3,0-0.5c0-0.3,0-0.6,0-0.9
		c0-0.6-0.2-0.9-0.8-1.2c0,0-0.1,0-0.2-0.1c-0.4-0.2-0.8-0.4-1.2-0.6c-1.1-0.7-1.4-1.6-0.8-2.7c0.5-0.7,1.1-1.3,1.8-1.8
		c0.5-0.2,0.8-0.6,0.9-0.9c0.2-0.4,0.2-0.9,0.2-1.4c0-6.1,0-12.2,0-18.3c0-1.5,0-3,0-4.5c0-0.1,0-0.2,0-0.3c0-0.6,0-1.1,0-1.6
		c0.1-0.7,0.5-0.9,1.3-0.8c0.8,0.1,1.2,0.5,1.2,1.2c0,0.4,0,0.9,0,1.3c0,0.1,0,0.3,0,0.4c0,3.3,0,6.7,0,10c0,3.3,0,6.6,0,9.9
		c0,0,0,0,0,0.1c0,0.6,0,1.1,0,1.6c0,0.5,0.3,0.7,0.8,0.5c0.2-0.1,0.3-0.2,0.5-0.3h0c3-1.6,5.9-3.2,8.8-4.9c2.9-1.7,5.8-3.5,8.5-5.5
		c1.9-1.3,3.7-2.7,5.4-4.3c1.7-1.5,3.3-3.2,4.7-5.1c1.5-2,2.6-4.2,3.3-6.7c0.5-1.6,0.6-3.3,0.4-5.1c-0.4-2.7-1.7-5-3.8-6.9
		c-1-0.9-2.1-1.6-3.3-2.1c-4.4-2.1-8.8-3.1-13.2-3.2c-4.4,0-8.6,0.7-12.7,2.1c-4.1,1.5-7.8,3.5-11.2,6C12.3,17,9.4,19.9,7,23
		c-0.9,1.1-1.8,2.3-2.4,3.5c-0.5,0.8-0.9,1.6-1.3,2.4c-0.4,0.8-0.6,1.8-0.7,2.7c0,0.2-0.1,0.4-0.3,0.5c-0.2,0.1-0.3,0.1-0.6,0.1
		c-0.3,0-0.6,0-0.8-0.1C0.3,32,0,31.6,0,31c0-0.8,0.1-1.5,0.4-2.2c0.9-2.6,2.3-4.9,4.1-6.9c2.7-3.2,6-6.1,9.7-8.7
		c3.7-2.6,7.8-4.6,12.1-6.1c4.4-1.5,8.9-2.2,13.5-2.2c4.7,0,9.3,1,13.9,3C54.8,8.4,55.9,9,56.9,9.7z"/>
	<path class="st0" d="M63.2,49c0.2-0.2,0.3,0,0.3,0.6c0,0.6-0.5,1.3-1.5,2.4c-1,1-2.1,1.5-3.2,1.4c-0.2,0-0.4,0-0.6,0.1
		c-0.2,0.1-0.3,0.2-0.4,0.4c-0.1,0.2-0.3,0.4-0.4,0.5l0,0c-0.7,0.7-1.5,1.2-2.4,1.4c-0.9,0.2-1.8,0.2-2.6-0.2
		c-0.8-0.4-1.4-1.1-1.8-2.1c-0.3-0.9-0.3-1.9-0.1-2.8c0.2-0.8,0.5-1.6,0.9-2.3c0.5-1,1.2-1.6,2-2c0.8-0.4,1.7-0.6,2.7-0.7
		c1.5-0.1,2.5,0.6,2.8,2.1c0.2,0.9,0.3,1.7,0.2,2.6c0,0.2-0.1,0.4-0.1,0.6c0,0.1-0.1,0.3-0.1,0.4c0,0.5,0.2,0.7,0.6,0.6
		C60.7,51.9,62,50.9,63.2,49z M54.4,54.6c0.8-0.4,1.3-1,1.6-1.8c-1.3-0.8-2.2-2-2.6-3.5c-0.4,0.7-0.7,1.6-0.7,2.5
		c-0.1,1,0,1.8,0.3,2.4C53.2,54.7,53.7,54.9,54.4,54.6z M56.6,51c0.2-0.3,0.3-0.7,0.4-1.1c0-0.4,0-0.9-0.1-1.3
		c-0.1-0.4-0.2-0.8-0.3-1c-0.1-0.3-0.3-0.3-0.5-0.2c-0.3,0.3-0.4,0.6-0.5,1.1c0,0.5,0,1,0.2,1.5C56,50.4,56.2,50.8,56.6,51z"/>
	<path class="st0" d="M81.4,49.5c-0.3,0.9-0.9,2-1.8,3.1c-0.9,1.2-2,1.9-3.3,2.3c-1.3,0.3-2.5,0.3-3.5-0.1c-1-0.4-1.5-1.6-1.6-3.5
		c-1.1,2.1-2.2,3.5-3.1,4.1c-1,0.6-2,0.8-3.1,0.7c-1.2-0.2-2.1-0.7-2.5-1.4c-0.4-0.8-0.6-1.6-0.4-2.6c0.1-1,0.4-1.9,0.9-2.8
		c0.4-0.7,0.9-1.3,1.5-1.9c0.6-0.6,1.3-1,2-1.4c0.9-0.4,1.7-0.6,2.6-0.6c0.9,0,1.8,0.3,2.8,0.9c0,0,0,0,0-0.1c0-0.1,0-0.2,0.1-0.4
		c0-0.1,0.1-0.3,0.3-0.4c0.3-0.2,0.7-0.4,1.2-0.4c0.4,0,0.8,0.2,1,0.7c0,0.6,0,1.3-0.2,2.2c-0.4,2-0.4,3.4,0,4.2
		c0.4,0.9,1,1.3,1.9,1.2c0.9-0.1,2.1-1,3.5-2.7C81.1,49,81.7,48.6,81.4,49.5z M65.3,54.1c0.5,0.4,1.1,0.3,1.7-0.1
		c0.6-0.5,1.3-1.1,1.9-1.9c0.6-0.8,1.1-1.7,1.5-2.5c0.4-0.8,0.6-1.5,0.7-1.9c-1.2-0.6-2.3-0.8-3.1-0.3c-0.9,0.4-1.6,1.1-2.1,2.1
		c-0.5,1-0.8,1.9-0.9,2.8C64.8,53.2,65,53.8,65.3,54.1z"/>
	<path class="st0" d="M105.9,49.9c0.1-0.2,0.2-0.3,0.5-0.3c0.2,0,0.4,0.1,0.5,0.4c0,0.1,0,0.3-0.2,0.6c-0.2,0.3-0.4,0.6-0.6,1
		c-0.3,0.4-0.5,0.7-0.8,1c-0.2,0.3-0.4,0.5-0.5,0.6c-1.1,1.2-2.2,2.1-3.3,2.6c-1.1,0.6-2.3,0.7-3.5,0.4c-1.3-0.3-2.7-1.2-4.3-2.7
		c-0.2-0.3-0.5-0.5-0.7-0.8c-0.1-0.1-0.1-0.1-0.2-0.2c-0.3-0.3-0.6-0.3-0.9-0.1c-0.3,0.2-0.7,0.5-1,0.7c-0.3,0.2-0.6,0.4-0.9,0.6
		c-1,0.7-2.1,1.3-3.2,1.8c-1.2,0.5-2.5,0.7-3.8,0.6c-2.1-0.2-3.1-1.4-3.2-3.4c0-1.4,0.3-2.7,0.9-3.9c0.6-1.1,1.5-2,2.7-2.5
		c1.1-0.5,2.5-0.6,3.9-0.3c0.2,0,0.4,0.1,0.6,0.1c0.2,0,0.4,0.1,0.6,0.1c-0.1-0.3-0.3-0.6-0.4-0.9c-0.2-0.4-0.4-0.8-0.6-1.2
		c-1-2-1.8-4.4-2.4-7c-0.6-2.6-0.9-5.3-0.9-8.1c0-2.8,0.5-5.3,1.4-7.7c0.9-2.4,2.4-4.3,4.5-5.9c1.3-0.9,2.7-1.4,4.2-1.5
		c1.4-0.1,2.8,0.2,4,0.9c1.3,0.7,2.3,1.7,3.1,3.1c1,1.9,1.7,3.9,1.9,6.1c0.4,3.4,0.4,6.6-0.2,9.6c-0.6,3-1.6,5.8-3.1,8.4
		c-1.5,2.6-3.3,5.2-5.6,7.7c-0.2,0.2-0.3,0.4-0.3,0.6c0,0.1,0.1,0.3,0.3,0.6c0.5,0.6,1,1.2,1.5,1.7c0.5,0.6,1.1,1,1.8,1.4
		c0.9,0.4,1.9,0.4,3,0c1.1-0.4,2.1-1,3-1.8C104.8,51.7,105.5,50.8,105.9,49.9z M89.8,51.4c0.3-0.2,0.3-0.5,0.1-0.8
		c-0.1-0.2-0.3-0.3-0.4-0.5c-0.4-0.5-0.8-1-1.3-1.5c-0.5-0.5-1-0.9-1.6-1.2c-0.5-0.3-1.1-0.3-1.6-0.1c-0.8,0.4-1.4,1-1.9,1.9
		c-0.5,0.9-0.8,1.8-0.9,2.8c-0.1,1,0.1,1.7,0.6,2.2c0.5,0.5,1.2,0.6,2.3,0.1C86.8,53.6,88.4,52.6,89.8,51.4z M93.5,47.8
		c2.3-2.7,4-5.4,5.2-8c1.1-2.6,1.9-5.7,2.3-9.2c0.1-0.9,0.2-2,0.2-3.4c0-1.4-0.1-2.8-0.4-4.4c-0.2-1.5-0.7-2.9-1.3-4.2
		c-0.6-1.2-1.5-2.1-2.6-2.7c-1.1-0.6-2.5-0.6-4.3,0c-1.9,1.1-3.3,2.6-4.3,4.5c-0.9,1.9-1.5,3.9-1.6,6.2c-0.1,2.3,0,4.6,0.4,7
		s1,4.6,1.8,6.8c0.8,2.1,1.6,4,2.5,5.6c0.1,0.2,0.2,0.4,0.3,0.6c0.3,0.6,0.6,1.2,1.2,1.8c0.1-0.1,0.1-0.1,0.2-0.2
		C93.2,48.1,93.3,47.9,93.5,47.8z"/>
	<path class="st0" d="M125.8,51.9L125.8,51.9c0.1-0.1,0.3-0.3,0.7-0.7c0.4-0.3,0.8-0.7,1.2-1c0.4-0.3,0.7-0.5,0.9-0.5
		c0.2,0,0.1,0.3-0.1,0.8c0,0.1-0.1,0.2-0.2,0.3c-0.1,0.1-0.2,0.2-0.2,0.3c0,0,0,0-0.1,0.1c-1.7,1.8-3,3-3.9,3.7
		c-0.9,0.7-1.9,1-2.8,1c-1-0.1-1.6-0.5-1.9-1.1c-0.3-0.6-0.5-1.4-0.5-2.4c0-0.9,0.1-1.9,0.2-2.8c0.1-1,0.2-1.8,0.2-2.5
		c0-0.7-0.3-1.1-0.7-1.2c-0.4,0-0.9,0.3-1.3,1.1c-0.4,0.7-0.9,1.6-1.3,2.6c-0.4,1-0.7,1.8-1,2.6c-0.1,0.4-0.3,0.7-0.3,0.9
		c-0.2,0.4-0.5,0.6-0.8,0.8c-0.4,0.1-0.7,0.1-1.2-0.1c-0.2-0.1-0.4-0.3-0.4-0.6c-0.1-0.6-0.1-1.2-0.1-1.8c0-0.4,0-0.8,0-1.2
		c0-0.1,0-0.2,0-0.4c0-0.2,0-0.4,0-0.6c0-0.2,0-0.4-0.1-0.5c0-0.1-0.1-0.2-0.2-0.2c-0.2,0-0.4,0.2-0.7,0.7c-0.3,0.5-0.5,1-0.8,1.7
		c-0.3,0.6-0.5,1.2-0.7,1.8c-0.2,0.5-0.3,0.8-0.4,0.9c0,0.1-0.1,0.1-0.1,0.2c-0.2,0.4-0.4,0.9-0.6,1.3c-0.2,0.4-0.5,0.6-0.9,0.6
		c-0.9,0.1-1.4-0.2-1.4-1.1c-0.1-2.2-0.1-4.5-0.2-6.7c0-0.6,0.4-0.8,1.1-0.6c0.7,0.2,1.1,0.5,1.2,1.1c0.1,0.9,0.2,1.4,0.3,1.4
		c0.1,0,0.4-0.4,0.9-1.2c0.2-0.4,0.5-0.8,0.8-1.2c0.3-0.6,0.7-1,1.3-1.4c0.6-0.4,1.1-0.5,1.6-0.3c0.5,0.1,0.9,0.5,1.2,1.2
		c0.1,0.3,0.2,0.4,0.4,0.4c0.1,0,0.2,0,0.4-0.2c0.1-0.1,0.2-0.3,0.4-0.5c0.1-0.2,0.2-0.4,0.3-0.5c0.7-0.7,1.5-1.3,2.4-1.5
		c0.9-0.3,1.8-0.3,2.5,0c0.8,0.3,1.2,1,1.3,2.1c0,1.3,0,2.6-0.3,3.9c-0.1,0.6-0.2,1.2-0.2,1.8c0,1.2,0.2,1.9,0.7,2
		c0.5,0.1,1.1-0.1,1.8-0.6C124.4,53,125.1,52.5,125.8,51.9z"/>
	<path class="st0" d="M145.7,49.5c-0.3,0.9-0.9,2-1.8,3.1c-0.9,1.2-2,1.9-3.3,2.3c-1.3,0.3-2.5,0.3-3.5-0.1c-1-0.4-1.5-1.6-1.6-3.5
		c-1.1,2.1-2.2,3.5-3.1,4.1c-1,0.6-2,0.8-3.1,0.7c-1.2-0.2-2.1-0.7-2.5-1.4c-0.4-0.8-0.6-1.6-0.4-2.6c0.1-1,0.4-1.9,0.9-2.8
		c0.4-0.7,0.9-1.3,1.5-1.9c0.6-0.6,1.3-1,2-1.4c0.9-0.4,1.7-0.6,2.6-0.6c0.9,0,1.8,0.3,2.8,0.9c0,0,0,0,0-0.1c0-0.1,0-0.2,0.1-0.4
		c0-0.1,0.1-0.3,0.3-0.4c0.3-0.2,0.7-0.4,1.2-0.4c0.4,0,0.8,0.2,1,0.7c0,0.6,0,1.3-0.2,2.2c-0.4,2-0.4,3.4,0,4.2
		c0.4,0.9,1,1.3,1.9,1.2c0.9-0.1,2.1-1,3.5-2.7C145.4,49,146,48.6,145.7,49.5z M129.6,54.1c0.5,0.4,1.1,0.3,1.7-0.1
		c0.6-0.5,1.3-1.1,1.9-1.9c0.6-0.8,1.1-1.7,1.5-2.5c0.4-0.8,0.6-1.5,0.7-1.9c-1.2-0.6-2.3-0.8-3.1-0.3c-0.9,0.4-1.6,1.1-2.1,2.1
		c-0.5,1-0.8,1.9-0.9,2.8C129.1,53.2,129.3,53.8,129.6,54.1z"/>
	<path class="st0" d="M157,49.9c0.5-0.1,1.2-0.5,1.9-1c0.8-0.6,1.2-0.6,1.1,0c-0.1,0.6-0.5,1-1.3,1.4c-0.8,0.4-1.5,0.6-2.2,0.8
		c-0.2,0-0.3,0.1-0.5,0.3c-0.2,0.1-0.3,0.3-0.3,0.4c-0.1,0.7-0.4,1.3-0.7,1.9c-0.9,1.5-2.3,2-4,1.7c-0.7-0.2-1.1-0.5-1.3-1
		c-0.2-0.5-0.1-1,0.3-1.6c0.5-0.7,1.2-1.2,2-1.5c0.3-0.1,0.6-0.3,0.8-0.3c0.1,0,0.3-0.1,0.4-0.1c0.3-0.2,0.5-0.5,0.5-1
		c0-0.5-0.1-1-0.3-1.5c-0.3-0.5-0.6-0.8-1-1c-0.4-0.2-1,0-1.6,0.5c-0.6,0.6-1.1,1.2-1.4,1.9c-0.7,1.5-1.2,3-1.5,4.7
		c-0.5,2.9-0.8,5.8-1,8.6c-0.1,1.3-0.2,2.7-0.4,4c-0.1,0.6-0.1,1.1-0.2,1.7c0,0.2-0.1,0.4-0.1,0.6c-0.1,0.4-0.4,0.5-0.8,0.5
		c-0.5,0-0.7-0.2-0.7-0.6c0-0.4,0-0.8,0-1.2c0-0.1,0-0.2,0-0.3c0-0.5,0-1,0.1-1.5c0-0.9,0-1.8,0.1-2.7c0-3.6,0-7.3-0.1-11
		c0-1.4,0-2.8-0.1-4.1c0-0.1,0-0.3,0-0.4c0-0.5,0-0.9,0.1-1.4c0.1-0.5,0.4-0.7,0.9-0.8c0.5,0,0.9,0.2,1,0.7c0,0,0,0.1,0,0.1
		c0.2,1,0.3,2.4,0.5,4.1c0.4-1.1,0.9-2,1.4-2.7c0.6-0.7,1.3-1.2,2.1-1.5c0.6-0.3,1.3-0.4,2-0.3c0.7,0.1,1.3,0.3,1.9,0.8
		c0.6,0.5,1,1.3,1.2,2.3c0.1,0.4,0.2,0.7,0.4,0.8C156.1,50,156.5,50,157,49.9z M152.1,54.3c0.4-0.2,0.8-0.6,1-1
		c0.2-0.4,0.4-0.7,0.4-1c0-0.3-0.1-0.4-0.4-0.3c-0.7,0.3-1.1,0.6-1.4,1c-0.3,0.4-0.3,0.8-0.3,1.1C151.5,54.4,151.7,54.5,152.1,54.3z
		"/>
</g>
</svg>
