<?xml version="1.0" encoding="utf-8"?>
<!-- Generator: Adobe Illustrator 21.0.0, SVG Export Plug-In . SVG Version: 6.00 Build 0)  -->
<svg version="1.1" id="Layer_1" xmlns="http://www.w3.org/2000/svg" xmlns:xlink="http://www.w3.org/1999/xlink" x="0px" y="0px"
	 viewBox="0 0 14.8 38" style="enable-background:new 0 0 14.8 38;" xml:space="preserve">
<style type="text/css">
	.st0{fill:#ED1E79;}
</style>
<g>
	<path class="st0" d="M3.9,6.5V0H0v6.5v1V38h14.8V6.5H3.9z M1,1h1.8v5.4H1V1z M13.8,37H1V7.5h2.8h9.9V37z"/>
	<path class="st0" d="M1.6,18.7h11.6v-7.3H1.6V18.7z M2.6,12.4h9.5v5.3H2.6V12.4z"/>
	<path class="st0" d="M1.6,25.7h2.8v-2.8H1.6V25.7z M2.4,23.7h1.2v1.2H2.4V23.7z"/>
	<rect x="1.6" y="19.9" class="st0" width="5.5" height="1.6"/>
	<rect x="7.7" y="19.9" class="st0" width="5.5" height="1.6"/>
	<path class="st0" d="M10.3,25.7h2.8v-2.8h-2.8V25.7z M11.2,23.7h1.2v1.2h-1.2V23.7z"/>
	<path class="st0" d="M6,25.7h2.8v-2.8H6V25.7z M6.8,23.7H8v1.2H6.8V23.7z"/>
	<path class="st0" d="M1.6,29.9h2.8v-2.8H1.6V29.9z M2.4,27.9h1.2v1.2H2.4V27.9z"/>
	<path class="st0" d="M10.3,29.9h2.8v-2.8h-2.8V29.9z M11.2,27.9h1.2v1.2h-1.2V27.9z"/>
	<path class="st0" d="M6,29.9h2.8v-2.8H6V29.9z M6.8,27.9H8v1.2H6.8V27.9z"/>
	<path class="st0" d="M1.6,34h2.8v-2.8H1.6V34z M2.4,32h1.2v1.2H2.4V32z"/>
	<path class="st0" d="M10.3,34h2.8v-2.8h-2.8V34z M11.2,32h1.2v1.2h-1.2V32z"/>
	<path class="st0" d="M6,34h2.8v-2.8H6V34z M6.8,32H8v1.2H6.8V32z"/>
	<rect x="6.6" y="35" class="st0" width="1.6" height="1"/>
	<rect x="6" y="9.3" class="st0" width="2.9" height="1"/>
</g>
</svg>
