<?xml version="1.0" encoding="utf-8"?>
<!-- Generator: Adobe Illustrator 21.0.0, SVG Export Plug-In . SVG Version: 6.00 Build 0)  -->
<svg version="1.1" id="Layer_1" xmlns="http://www.w3.org/2000/svg" xmlns:xlink="http://www.w3.org/1999/xlink" x="0px" y="0px"
	 viewBox="0 0 33 26" style="enable-background:new 0 0 33 26;" xml:space="preserve">
<style type="text/css">
	.st0{fill:#62CCCE;}
</style>
<g>
	<path class="st0" d="M16.5,26c-5.2,0-9.4-4.2-9.4-9.4c0-5.2,4.2-9.4,9.4-9.4c5.2,0,9.4,4.2,9.4,9.4C25.9,21.8,21.7,26,16.5,26z
		 M16.5,8.9c-4.3,0-7.7,3.5-7.7,7.7c0,4.3,3.5,7.7,7.7,7.7s7.7-3.5,7.7-7.7C24.2,12.4,20.8,8.9,16.5,8.9z"/>
	<polygon class="st0" points="17.3,23.3 15.6,23.2 15.7,17.1 11.5,15.3 12.2,13.8 17.3,16.1 	"/>
</g>
</svg>
