<?xml version="1.0" encoding="utf-8"?>
<!-- Generator: Adobe Illustrator 21.0.0, SVG Export Plug-In . SVG Version: 6.00 Build 0)  -->
<svg version="1.1" id="Layer_1" xmlns="http://www.w3.org/2000/svg" xmlns:xlink="http://www.w3.org/1999/xlink" x="0px" y="0px"
	 viewBox="0 0 35 35" style="enable-background:new 0 0 35 35;" xml:space="preserve">
<g>
	<path d="M33.7,8.2c-0.1-0.7-0.1-1.4-0.3-2.1c-0.1-0.4-0.1-0.8-0.2-1.1c-0.5-2.1-1.5-3.9-4.1-4.6c-1.7-0.5-3.6-0.4-5.4-0.2
		c-2.6,0.2-5.2,0.3-7.7,0.5S10.9,1,8.3,1.1C6.5,1.2,4.5,1.2,3.1,2.3C2.2,3,1.8,3.9,1.6,4.9C1.3,6.1,1.3,7.4,1.3,8.7
		c0,0.6,0,1.1,0,1.7c-0.1,1.7-0.1,3.3-0.2,5C1,19,0.6,22.8,0.8,26.6c0,0.5,0.1,1,0.2,1.5c0.5,2.8,2.1,5.6,5.2,6.6
		c0.3,0,0.6,0,0.9,0.1c0,0,0,0,0,0c0.3,0,0.6,0,1,0c0,0,0,0,0,0c4.6,0.1,9.2,0.2,13.8,0.3c3.5,0.1,7.6-0.2,9.8-3
		c1-1.3,1.5-2.9,1.7-4.5c0-0.1,0-0.2,0.1-0.3c0-0.1,0-0.1,0-0.2c0-0.1,0-0.3,0.1-0.4c0,0,0-0.1,0-0.1c0.1-0.5,0.1-1,0.2-1.6
		c0.2-1.8,0.3-3.6,0.4-5.5C34.3,15.7,34.2,11.9,33.7,8.2z M25.4,26.5c-2.5,0.4-5,0.1-7.5,0.2c-2.3,0.1-4.7,0.1-7,0.1
		c-1.5,0-3.1-0.1-4.1-1.2c-1.1-1.2-1.2-2.8-1.1-4.4c0,0,0,0-0.1,0c0-0.7,0-1.5,0-2.2c0-1.7-0.2-3.6,0-5.4c0.3-2.3,2-3.4,4-3.5
		c0,0,0.1,0,0.1,0c0,0,0,0.1,0,0.1c0,0,0,0,0,0c1.1-0.4,2.4-0.2,3.6-0.1c2.2,0.1,4.3,0,6.5,0.1c1.9,0,3.9-0.4,5.7,0
		c0.6,0.1,1.4,0.4,1.8,0.8c0,0,0-0.1,0-0.1c0.4,0.3,0.7,0.7,0.9,1.2c0.8,1.7,0.6,3.7,0.7,5.6C29.5,21.1,29.9,25.8,25.4,26.5z"/>
	<path d="M21.2,18.2c-0.4-0.4-0.8-0.6-1.3-0.9c-0.6-0.4-1.1-0.9-1.7-1.3c-1.3-0.7-2.6-1.4-3.8-2.1c0,0,0,0,0,0c0,0-0.1,0-0.1,0
		c0,0-0.1,0.1,0,0.1c-0.3,1.4-0.1,3-0.1,4.5c0,1.4-0.2,2.9,0,4.3c0,0.2,0.4,0.2,0.4,0c1.3-0.5,2.4-1.5,3.6-2.3c1-0.7,2.4-1.2,3.3-2
		C21.6,18.4,21.4,18.1,21.2,18.2z"/>
</g>
</svg>
