<?xml version="1.0" encoding="utf-8"?>
<!-- Generator: Adobe Illustrator 21.0.0, SVG Export Plug-In . SVG Version: 6.00 Build 0)  -->
<svg version="1.1" id="Layer_1" xmlns="http://www.w3.org/2000/svg" xmlns:xlink="http://www.w3.org/1999/xlink" x="0px" y="0px"
	 viewBox="0 0 228 196" style="enable-background:new 0 0 228 196;" xml:space="preserve">
<style type="text/css">
	.st0{fill:url(#SVGID_1_);}
</style>
<linearGradient id="SVGID_1_" gradientUnits="userSpaceOnUse" x1="3.8695" y1="98" x2="222.9" y2="98">
	<stop  offset="0" style="stop-color:#ED1E79"/>
	<stop  offset="1" style="stop-color:#F61451"/>
</linearGradient>
<path class="st0" d="M221.2,0.5c-3.7,0.9-7,2.7-9.4,5.7c-1.7,2.1-3,4.5-4.4,6.8c-3.9,2.2-7.6,8.2-9.2,10.7c-4.4,6.6-6.2,14.2-7.8,22
	c-2,9.7-3.4,19.6-6.5,29c-1.1,3.3-2.4,6.6-4.6,9.4c-2.4,3-5.4,5.5-8.1,8.2c-6.3,6.3-10.6,13.4-10.6,21.9c-5.9,1.5-11.7,2.8-17.9,2.7
	c-2,0-3.9-0.3-5.8-0.4c-2.6-0.2-3.9,0.6-5.9,2.2c-2.1,1.8-4,3.9-6.2,5.6c-1.5,1.2-2.9,1.9-4.8,1.8c-3.8-0.2-7.4-3.5-11.1-1.6
	c-3.1,1.5-6.1,3.9-8.9,5.9c-1.4,1-2.9,2.1-4.2,3.3c-1.5-0.6-3.1-1.2-4.6-1.6c-2.7-0.6-4.3,1-6.4,2.2c-1.8,1-3.9,1-6,1.5
	c-4.2,1-6.3,3.2-9.4,5.9c-5,4.6-10.1,9.1-15.1,13.7c-5.6-2.2-10.8-5.4-17-3.2c-5.2,1.8-8.6,6.2-10.6,11.1c-2.1,0-4.2-0.3-6.2,0.9
	c-0.9,0.5-1.5,1.3-2.1,2c-2.2,2.6-4.3,5.2-6.5,7.8c-2.4,2.9-4.8,5.9-7.2,8.9c-1.9,2.4-4.2,4.6-4.2,7.9c0,6.2,9,6.5,10,1
	c0.2-0.2,0.3-0.4,0.5-0.6c-0.8,1,0.4-0.6,0.6-0.7c0.5-0.6,0.9-1.2,1.4-1.7c2.1-2.6,4.2-5.2,6.3-7.8c1.9-2.3,3.7-4.5,5.6-6.8
	c0.1-0.2,0.6-0.5,0.9-0.9c0.5,0,1.1,0,1.6,0.1c1.5,0,2.9-0.1,4.4-0.5c1.7-0.5,3.1-1.8,3.5-3.5c0.8-3.3,2.9-8,7.1-7.7
	c4.6,0.4,8.3,4.6,12.9,4.6c2.3,0,3.9-1.8,5.5-3.2c1.9-1.7,3.8-3.4,5.7-5.1c4.2-3.8,8.4-7.6,12.6-11.4c0.2-0.1,0.4-0.3,0.6-0.5
	c0,0,0,0,0,0c0.6,0.1,2-0.6,2.7-0.7c3-0.6,5.5-1.4,8-2.8c1.8,0.7,3.6,1.3,5.4,2c2.1,0.8,4.6-0.5,5.7-2.3c1.1-1.8,3.3-3.1,5.1-4.2
	c1.8-1.2,3.6-2.3,5.4-3.5c5,1.8,10.3,2.5,15.4,0.1c3.8-1.8,6.8-5.1,9.9-7.9c10.4,1,19.9-1.2,30-3.7c2.8-0.7,4-3.6,3.5-6.2
	c-1.3-7.1,2.8-12.5,7.5-17.2c4.9-4.9,10-9.3,12.9-15.8c7-15.7,7-33.5,12.7-49.7c0.2-0.7,0.5-1.1,1.2-2.3c0.8-1.3,1.7-2.6,2.5-3.9
	c0.9-1.3,1.8-2.6,2.8-3.9c0.4-0.5,0.8-1,1.3-1.5c0,0,0,0,0,0c1.2-0.4,2.3-1.2,3-2.2c2.8-3.8,4.1-8.6,9.1-9.8
	C230.2,8.7,227.5-1,221.2,0.5z"/>
</svg>
