<?xml version="1.0" encoding="utf-8"?>
<!-- Generator: Adobe Illustrator 21.0.0, SVG Export Plug-In . SVG Version: 6.00 Build 0)  -->
<svg version="1.1" id="Layer_1" xmlns="http://www.w3.org/2000/svg" xmlns:xlink="http://www.w3.org/1999/xlink" x="0px" y="0px"
	 viewBox="0 0 50 50" style="enable-background:new 0 0 50 50;" xml:space="preserve">
<style type="text/css">
	.st0{fill:#231F20;}
</style>
<g>
	<path class="st0" d="M10,23.9c-0.1,0-0.2,0-0.4,0c0-7.3,0-14.6,0-21.9c0-1.4-2.2-1.4-2.2,0c0,7.3,0,14.6,0,21.9c-1.3,0-2.6,0-3.8,0
		c0-7.3,0-14.6,0-21.9c0-1.4-2.2-1.4-2.2,0c0,7.3,0,14.6,0,21.9c-0.1,0-0.2,0-0.4,0c-1.4,0-1.4,2.2,0,2.2c0.1,0,0.2,0,0.4,0
		c0,7.3,0,14.6,0,21.9c0,1.4,2.2,1.4,2.2,0c0-7.3,0-14.6,0-21.9c1.3,0,2.6,0,3.8,0c0,7.3,0,14.6,0,21.9c0,1.4,2.2,1.4,2.2,0
		c0-7.3,0-14.6,0-21.9c0.1,0,0.2,0,0.4,0C11.4,26.1,11.4,23.9,10,23.9z"/>
	<path class="st0" d="M20.1,3.4c1.4,0,1.4-2.2,0-2.2c-1.9,0-3.9,0-5.8,0c-0.6,0-1.1,0.5-1.1,1.1c0,15.2,0,30.3,0,45.5
		c0,0.6,0.5,1.1,1.1,1.1c1.9,0,3.9,0,5.8,0c1.4,0,1.4-2.2,0-2.2c-1.6,0-3.2,0-4.7,0c0-6.9,0-13.7,0-20.6c1.2,0,2.4,0,3.6,0
		c1.4,0,1.4-2.2,0-2.2c-1.2,0-2.4,0-3.6,0c0-6.9,0-13.7,0-20.6C16.9,3.4,18.5,3.4,20.1,3.4z"/>
	<path class="st0" d="M30.7,2c-0.6,5.8-1.2,11.7-1.8,17.5c-0.7-5.8-1.3-11.7-2-17.5c-0.2-1.4-2.3-1.4-2.2,0c1,9.2,2.1,18.5,3.1,27.7
		c-0.6,6.1-1.2,12.2-1.8,18.3c-0.1,1.4,2,1.4,2.2,0c0.6-6,1.2-11.9,1.8-17.9c0-0.1,0.1-0.3,0-0.5l0,0C31,20.5,31.9,11.2,32.9,2
		C33,0.6,30.8,0.6,30.7,2z"/>
	<path class="st0" d="M36.2,1.6c0,3.1,0,6.2,0,9.3c0,0.9,1.5,0.9,1.5,0c0-3.1,0-6.2,0-9.3C37.7,0.7,36.2,0.7,36.2,1.6z"/>
	<path class="st0" d="M46.9,1.4c-0.7-0.3-1.5-0.5-2.3-0.5c-2,0-4,1.1-4.9,3.1c-1.3,2.7-0.1,5.9,2.6,7.1c0.7,0.3,1.5,0.5,2.3,0.5
		c2,0,4-1.1,4.9-3.1C50.7,5.9,49.6,2.7,46.9,1.4z M48.3,8c-0.7,1.4-2.1,2.4-3.7,2.4c-0.6,0-1.2-0.1-1.7-0.4c-1-0.5-1.7-1.3-2.1-2.3
		s-0.3-2.1,0.1-3.1c0.7-1.4,2.1-2.4,3.7-2.4c0.6,0,1.2,0.1,1.7,0.4c1,0.5,1.7,1.3,2.1,2.3C48.8,5.9,48.8,7,48.3,8z"/>
</g>
</svg>
